# xmcd
#
# Track frame offsets: 
#        150
#        17384
#        36555
#        52287
#        65965
#        91063
#        107084
#        126516
#        140448
#        153809
#        167545
#        186563
#        206390
#        229835
#        244360
#        262097
#
# Disc length: 3985 seconds
#
# Revision: 4
# Processed by: cddbd v1.5.2PL0 Copyright (c) Steve Scherf et al.
# Submitted via: ExactAudioCopy v0.99pb4
#
DISCID=ee0f8f10
DTITLE=ZZ Top - Mescalero
DYEAR=2003
DGENRE=Rock
TTITLE0=Mescalero
TTITLE1=Two Ways To Play
TTITLE2=Alley-Gator
TTITLE3=Buck Nekkid
TTITLE4=Goin' So Good
TTITLE5=Me So Stupid
TTITLE6=Piece
TTITLE7=Punk Ass Boyfriend
TTITLE8=Stackin' Paper
TTITLE9=What Would You Do
TTITLE10=What It Is Kid
TTITLE11=Que Lastima
TTITLE12=Tramp
TTITLE13=Crunchy
TTITLE14=Dusted
TTITLE15=Liquor
EXTD=LABEL =Lone Wolf Production Company\nID =8287651168-2\nUPC =no
EXTD=ne\nCOPYRIGHT =2003
EXTT0=
EXTT1=
EXTT2=
EXTT3=
EXTT4=
EXTT5=
EXTT6=
EXTT7=
EXTT8=
EXTT9=
EXTT10=
EXTT11=
EXTT12=
EXTT13=
EXTT14=
EXTT15=
PLAYORDER=
